# xmcd
#
# Track frame offsets:
#	150
#	18259
#	34310
#	71263
#	86067
#
# Disc length: 1576 seconds
#
# Revision: 1
# Processed by: cddbd v1.5.2PL0 Copyright (c) Steve Scherf et al.
# Submitted via: audiograbber 1.83.01
#
DISCID=36062605
DTITLE=Candyman 'n' Friends - Sunshine [CDM)
DYEAR=2004
DGENRE=Trance
TTITLE0=Sunshine (Original)
TTITLE1=Sunshine (DeCall Vs. DJ Shanon Edit)
TTITLE2=Sunshine (DeCall vs. DJ Shanon Remix)
TTITLE3=Sunshine (Mr. T Radio Edit)
TTITLE4=Sunshine (Mr. T Dream On Remix)
EXTD=TR.
EXTT0=
EXTT1=
EXTT2=
EXTT3=
EXTT4=
PLAYORDER=
